<svg xmlns="http://www.w3.org/2000/svg" width="192" height="192" viewBox="0 0 192 192">
  <defs>
    <linearGradient id="bg" x1="0%" y1="0%" x2="100%" y2="100%">
      <stop offset="0%" style="stop-color:#84CC16"/>
      <stop offset="100%" style="stop-color:#65A30D"/>
    </linearGradient>
  </defs>
  <!-- Background -->
  <rect width="192" height="192" rx="40" fill="url(#bg)"/>
  <!-- Shine -->
  <ellipse cx="142" cy="45" rx="68" ry="60" fill="rgba(255,255,255,0.08)"/>
  <!-- Scanner corners -->
  <path d="M 49 68 L 49 56 Q 49 49 56 49 L 68 49" fill="none" stroke="white" stroke-width="3.5" stroke-linecap="round"/>
  <path d="M 124 49 L 136 49 Q 143 49 143 56 L 143 68" fill="none" stroke="white" stroke-width="3.5" stroke-linecap="round"/>
  <path d="M 49 124 L 49 136 Q 49 143 56 143 L 68 143" fill="none" stroke="white" stroke-width="3.5" stroke-linecap="round"/>
  <path d="M 124 143 L 136 143 Q 143 143 143 136 L 143 124" fill="none" stroke="white" stroke-width="3.5" stroke-linecap="round"/>
  <!-- Scan line -->
  <line x1="56" y1="96" x2="136" y2="96" stroke="white" stroke-width="1.5" stroke-dasharray="5,4" opacity="0.4"/>
  <!-- Text -->
  <text x="96" y="90" text-anchor="middle" font-family="-apple-system, 'Helvetica Neue', sans-serif" font-weight="900" font-size="28" fill="white" letter-spacing="-1">Skład</text>
  <text x="96" y="117" text-anchor="middle" font-family="-apple-system, 'Helvetica Neue', sans-serif" font-weight="900" font-size="28" fill="#1A3A0A" letter-spacing="-0.5">AI</text>
</svg>
